<svg xmlns="http://www.w3.org/2000/svg" width="1024" height="1024"><path fill="#4B612C" d="M933.818 761.599v-248.619h-255.66v319.976l137.412 37.087zM511.723 719.982l301.859 61.32v-626.599l-301.859 81.865z"/><path fill="#759C3E" d="M511.723 512.98v-509.524l222.563 111.509zM933.818 512.98v298.463l-118.537 59.29zM933.818 335.665v-121.783l-120.236-59.179-301.859 565.279v301.474l223.295-111.647zM89.6 761.599v-248.619h255.673v319.976l-137.398 37.087zM511.723 719.982l-301.874 61.32v-626.599l301.874 81.865z"/><path fill="#4B612C" d="M511.723 512.98v-509.524l-222.577 111.509zM89.6 512.98v298.463l118.551 59.29zM89.6 335.665v-121.783l120.249-59.179 301.874 565.279v301.474l-223.295-111.647z"/></svg>