<?xml version="1.0" encoding="UTF-8" standalone="no"?>
<svg width="256px" height="256px" viewBox="0 0 256 256" version="1.1" xmlns="http://www.w3.org/2000/svg" xmlns:xlink="http://www.w3.org/1999/xlink">
    <!-- Generator: Sketch 41.2 (35397) - http://www.bohemiancoding.com/sketch -->
    <title>AWS OpsWorks</title>
    <desc>Created with Sketch.</desc>
    <defs></defs>
    <g id="stickers" stroke="none" stroke-width="1" fill="none" fill-rule="evenodd">
        <g id="AWS-OpsWorks">
            <g id="opsworks" transform="translate(86.000000, 50.000000)">
                <g id="Group" transform="translate(0.000000, 0.000000)">
                    <path d="M83.5238486,74.9997136 L83.5238486,50.4197263 L58.2477452,50.4197263 L58.2477452,82.0545009 L71.8331317,85.7211474 L83.5238486,74.9997136 Z M41.7929683,70.8852037 L71.636586,76.9476721 L71.636586,14.9982818 L41.7929683,23.0919539 L41.7929683,70.8852037 Z" id="Shape" fill="#4B612C"></path>
                    <path d="M41.7929683,50.4197263 L41.7929683,0.045082935 L63.7969009,11.0695413 L41.7929683,50.4197263 Z M83.5238486,50.4197263 L83.5238486,79.9275948 L71.8045594,85.789365 L83.5238486,50.4197263 Z M83.5238486,32.8892863 L83.5238486,20.8490778 L71.636586,14.9982818 L41.7929683,70.8852037 L41.7929683,100.690758 L63.8692708,89.6526561 L83.5238486,32.8892863 Z M0.0593196513,74.9997136 L0.0593196513,50.4197263 L25.3367083,50.4197263 L25.3367083,82.0545009 L11.7527059,85.7211474 L0.0593196513,74.9997136 Z M41.7929683,70.8852037 L11.9478676,76.9476721 L11.9478676,14.9982818 L41.7929683,23.0919539 L41.7929683,70.8852037 Z" id="Shape" fill="#759C3E"></path>
                    <path d="M41.7929683,50.4197263 L41.7929683,0.045082935 L19.7876515,11.0695413 L41.7929683,50.4197263 Z M0.0593196513,50.4197263 L0.0593196513,79.9275948 L11.779993,85.789365 L0.0593196513,50.4197263 Z M0.0593196513,32.8892863 L0.0593196513,20.8490778 L11.9478676,14.9982818 L41.7929683,70.8852037 L41.7929683,100.690758 L19.7166657,89.6526561 L0.0593196513,32.8892863 Z" id="Shape" fill="#4B612C"></path>
                </g>
            </g>
            <text font-family="HelveticaNeue-Medium, Helvetica Neue" font-size="30" font-weight="400" fill="#FFFFFF">
                <tspan x="18" y="199">AWS OpsWorks</tspan>
            </text>
        </g>
    </g>
</svg>